<svg width="363" height="363" viewBox="0 0 363 363" fill="none" xmlns="http://www.w3.org/2000/svg">
<path d="M356.067 332.301L270.981 247.215C291.66 221.366 303.983 188.644 303.983 152.955C303.983 69.6209 236.362 2 153.028 2C69.6209 2 2 69.6209 2 153.028C2 236.434 69.6209 304.055 153.028 304.055C188.645 304.055 221.435 291.733 247.288 271.054L332.301 356.067C338.878 362.644 349.49 362.644 356.067 356.067C362.644 349.49 362.644 338.878 356.067 332.301ZM35.5592 153.028C35.5592 88.2036 88.1311 35.6316 152.955 35.6316C217.779 35.6316 270.351 88.2036 270.351 153.028C270.351 217.852 217.779 270.423 152.955 270.423C88.1311 270.423 35.5592 217.852 35.5592 153.028Z" fill="white" stroke="white" stroke-width="4"/>
</svg>
