<svg width="475" height="520" viewBox="0 0 475 520" fill="none" xmlns="http://www.w3.org/2000/svg">
<path d="M151.6 273C143.867 273 135.133 272.333 125.4 271C120.067 270.333 116.4 268.933 114.4 266.8C112.4 264.667 111.533 261.2 111.8 256.4C112.733 243.2 114.933 226.933 118.4 207.6C121.867 188.133 126.067 169.4 131 151.4C131.933 148.067 133.8 145.733 136.6 144.4C139.4 143.067 143.067 142.4 147.6 142.4C155.733 142.4 159.8 144.667 159.8 149.2C159.8 151.067 159.4 153.2 158.6 155.6C155.133 166.267 151.667 180.6 148.2 198.6C144.733 216.467 142.267 233.533 140.8 249.8C144.8 250.2 149.333 250.4 154.4 250.4C177.733 250.4 195.133 243.333 206.6 229.2C218.2 215.067 224 196.2 224 172.6C224 156.733 219.467 144.467 210.4 135.8C201.333 127.133 188.533 122.8 172 122.8C161.333 122.8 150.733 124.467 140.2 127.8C129.8 131.133 120.4 135.533 112 141C110.267 142.2 108.4 142.8 106.4 142.8C104.133 142.8 102.333 141.867 101 140C99.6667 138 99 135.6 99 132.8C99 129.6 99.5333 127 100.6 125C101.667 122.867 103.467 120.933 106 119.2C115.2 112.933 126 108.2 138.4 105C150.8 101.667 162.733 100 174.2 100C190.467 100 204.533 102.867 216.4 108.6C228.267 114.2 237.4 122.467 243.8 133.4C250.2 144.333 253.4 157.533 253.4 173C253.4 193.133 249.4 210.733 241.4 225.8C233.4 240.733 221.733 252.333 206.4 260.6C191.067 268.867 172.8 273 151.6 273Z" fill="white"/>
<path d="M292.4 393.6C274.667 393.6 260.467 390.267 249.8 383.6C239.133 376.8 233.8 366.467 233.8 352.6C233.8 345.267 235.067 339.667 237.6 335.8C240.133 331.933 243.867 330 248.8 330C252.4 330 255.333 330.933 257.6 332.8C259.867 334.667 261 337.067 261 340C261 342.667 260.8 345 260.4 347C260.4 347.533 260.267 348.467 260 349.8C259.867 351.133 259.8 352.533 259.8 354C259.8 360 262.8 364.467 268.8 367.4C274.933 370.333 283.467 371.8 294.4 371.8C305.733 371.8 314.6 369.8 321 365.8C327.4 361.667 330.6 355.933 330.6 348.6C330.6 344.067 329.133 340.2 326.2 337C323.267 333.667 319.6 330.933 315.2 328.8C310.8 326.533 304.6 323.8 296.6 320.6C286.333 316.6 277.933 312.8 271.4 309.2C265 305.6 259.467 300.733 254.8 294.6C250.267 288.333 248 280.6 248 271.4C248 261.8 250.533 253.267 255.6 245.8C260.8 238.333 268.2 232.533 277.8 228.4C287.533 224.267 298.933 222.2 312 222.2C321.733 222.2 330.667 223.667 338.8 226.6C346.933 229.4 353.4 233.733 358.2 239.6C363.133 245.467 365.6 252.667 365.6 261.2C365.6 269.6 364.333 275.933 361.8 280.2C359.267 284.467 355.533 286.6 350.6 286.6C347.133 286.6 344.2 285.533 341.8 283.4C339.533 281.267 338.4 278.733 338.4 275.8C338.4 273.267 338.6 270.933 339 268.8C339.4 264.8 339.6 262.267 339.6 261.2C339.6 255.6 336.867 251.333 331.4 248.4C325.933 245.467 319.133 244 311 244C299.533 244 290.733 246.133 284.6 250.4C278.6 254.533 275.6 260.4 275.6 268C275.6 273.067 277.133 277.4 280.2 281C283.4 284.6 287.333 287.6 292 290C296.667 292.4 303.2 295.267 311.6 298.6C321.733 302.733 329.867 306.467 336 309.8C342.133 313.133 347.333 317.667 351.6 323.4C356 329.133 358.2 336.2 358.2 344.6C358.2 360.333 352.2 372.467 340.2 381C328.333 389.4 312.4 393.6 292.4 393.6Z" fill="white"/>
<path d="M157.5 417.493C155.557 415.92 155.557 415.92 155.557 415.921L155.555 415.923L155.549 415.931L155.523 415.962L155.425 416.084C155.338 416.191 155.21 416.35 155.043 416.557C154.71 416.971 154.222 417.577 153.604 418.35C152.367 419.896 150.607 422.106 148.512 424.767C144.324 430.087 138.793 437.217 133.43 444.441C128.078 451.651 122.853 459.008 119.302 464.767C117.539 467.627 116.118 470.204 115.316 472.222C114.926 473.204 114.6 474.252 114.547 475.227C114.496 476.155 114.69 477.858 116.355 478.716C116.7 478.893 117.082 478.988 117.47 478.993C199.503 479.994 351.056 477.9 403.117 475.497C429.904 474.261 447.014 462.444 457.403 448.064C467.715 433.791 471.328 417.117 471.501 406.039C471.502 406.026 471.502 406.013 471.502 406V71C471.502 44.7854 458.252 27.8067 441.844 17.3658C425.546 6.99534 406.086 3.01453 393.1 2.50195C393.055 2.50016 393.01 2.4996 392.965 2.50028C303.466 3.83359 112.463 6.7003 64.4601 7.50035C39.4748 7.91677 23.8215 20.4008 14.5491 35.7578C5.35743 50.9811 2.41759 69.0114 2.50175 81.0089V514.5C2.50175 515.483 3.07761 516.374 3.97344 516.779C4.86927 517.183 5.91885 517.025 6.65581 516.375L66.1558 463.875C66.742 463.357 67.0525 462.596 66.995 461.816L64.5018 462C66.995 461.816 66.9949 461.815 66.9947 461.812L66.9937 461.799L66.99 461.749L66.9753 461.547L66.9171 460.75C66.866 460.046 66.7906 459 66.6933 457.634C66.4988 454.904 66.217 450.896 65.868 445.788C65.1701 435.571 64.2037 420.954 63.1299 403.356C60.9822 368.157 58.4054 321.038 56.6876 273.348C54.9695 225.645 54.1127 177.418 55.3987 139.984C56.0421 121.257 57.2196 105.307 59.0759 93.5006C60.0052 87.5905 61.0914 82.8069 62.3298 79.2649C63.6146 75.5903 64.9001 73.7451 65.8972 73.0743C68.961 71.0132 74.403 68.932 82.0453 66.9692C89.6156 65.0249 99.1053 63.2544 110.078 61.7063C132.018 58.6109 159.732 56.4264 189.561 55.4893C249.263 53.6137 317.141 56.7445 363.943 67.4372C387.516 72.8229 399.102 83.3233 404.915 93.9611C410.798 104.727 411 116.022 411 123.5C411 168.48 413.273 215.474 415.405 259.552C415.824 268.219 416.238 276.774 416.628 285.178C419.005 336.415 420.49 381.959 417.015 413.728C416.604 417.48 413.295 420.937 406.014 423.809C398.868 426.628 388.716 428.532 376.407 429.667C351.834 431.932 319.388 431.076 286.955 428.906C254.551 426.738 222.277 423.266 198.096 420.336C186.008 418.871 175.947 417.541 168.909 416.578C165.391 416.097 162.628 415.707 160.746 415.438C159.805 415.303 159.085 415.199 158.6 415.128C158.357 415.093 158.174 415.066 158.051 415.048L157.913 415.027L157.878 415.022L157.87 415.021C157.868 415.021 157.867 415.021 157.5 417.493ZM157.5 417.493L155.557 415.92C156.114 415.232 156.993 414.891 157.867 415.021L157.5 417.493Z" fill="#FCC34A" stroke="#FCC34A" stroke-width="5" stroke-linecap="round" stroke-linejoin="round"/>
</svg>
